<mxfile host="Electron" modified="2024-06-22T08:53:00.566Z" agent="Mozilla/5.0 (Windows NT 10.0; Win64; x64) AppleWebKit/537.36 (KHTML, like Gecko) draw.io/24.6.1 Chrome/124.0.6367.207 Electron/30.0.6 Safari/537.36" etag="A4ZrNyQN6-Kt0JR0zVEF" version="24.6.1" type="device">
  <diagram id="R2lEEEUBdFMjLlhIrx00" name="Page-1">
    <mxGraphModel dx="2419" dy="1171" grid="1" gridSize="10" guides="1" tooltips="1" connect="1" arrows="1" fold="1" page="1" pageScale="1" pageWidth="850" pageHeight="1100" math="0" shadow="0" extFonts="Permanent Marker^https://fonts.googleapis.com/css?family=Permanent+Marker">
      <root>
        <mxCell id="0" />
        <mxCell id="1" parent="0" />
        <mxCell id="wvXTG4sEaDYobyPt9_Gc-30" value="" style="group;fontSize=20;" parent="1" vertex="1" connectable="0">
          <mxGeometry x="-50" y="10" width="670" height="240" as="geometry" />
        </mxCell>
        <mxCell id="wvXTG4sEaDYobyPt9_Gc-3" style="rounded=0;orthogonalLoop=1;jettySize=auto;html=1;exitX=0.5;exitY=0;exitDx=0;exitDy=0;entryX=0.5;entryY=1;entryDx=0;entryDy=0;fontSize=20;" parent="wvXTG4sEaDYobyPt9_Gc-30" source="wvXTG4sEaDYobyPt9_Gc-1" target="wvXTG4sEaDYobyPt9_Gc-2" edge="1">
          <mxGeometry relative="1" as="geometry" />
        </mxCell>
        <mxCell id="wvXTG4sEaDYobyPt9_Gc-12" style="edgeStyle=none;rounded=0;orthogonalLoop=1;jettySize=auto;html=1;exitX=0.5;exitY=0;exitDx=0;exitDy=0;entryX=0.5;entryY=1;entryDx=0;entryDy=0;fontSize=20;" parent="wvXTG4sEaDYobyPt9_Gc-30" source="wvXTG4sEaDYobyPt9_Gc-1" target="wvXTG4sEaDYobyPt9_Gc-5" edge="1">
          <mxGeometry relative="1" as="geometry" />
        </mxCell>
        <mxCell id="wvXTG4sEaDYobyPt9_Gc-13" style="edgeStyle=none;rounded=0;orthogonalLoop=1;jettySize=auto;html=1;exitX=0.5;exitY=0;exitDx=0;exitDy=0;entryX=0.5;entryY=1;entryDx=0;entryDy=0;fontSize=20;" parent="wvXTG4sEaDYobyPt9_Gc-30" source="wvXTG4sEaDYobyPt9_Gc-1" target="wvXTG4sEaDYobyPt9_Gc-6" edge="1">
          <mxGeometry relative="1" as="geometry" />
        </mxCell>
        <mxCell id="wvXTG4sEaDYobyPt9_Gc-14" style="edgeStyle=none;rounded=0;orthogonalLoop=1;jettySize=auto;html=1;exitX=0.5;exitY=0;exitDx=0;exitDy=0;entryX=0.5;entryY=1;entryDx=0;entryDy=0;fontSize=20;" parent="wvXTG4sEaDYobyPt9_Gc-30" source="wvXTG4sEaDYobyPt9_Gc-1" target="wvXTG4sEaDYobyPt9_Gc-7" edge="1">
          <mxGeometry relative="1" as="geometry" />
        </mxCell>
        <mxCell id="wvXTG4sEaDYobyPt9_Gc-15" style="edgeStyle=none;rounded=0;orthogonalLoop=1;jettySize=auto;html=1;exitX=0.5;exitY=0;exitDx=0;exitDy=0;entryX=0;entryY=0.5;entryDx=0;entryDy=0;fontSize=20;" parent="wvXTG4sEaDYobyPt9_Gc-30" source="wvXTG4sEaDYobyPt9_Gc-1" target="wvXTG4sEaDYobyPt9_Gc-9" edge="1">
          <mxGeometry relative="1" as="geometry" />
        </mxCell>
        <mxCell id="wvXTG4sEaDYobyPt9_Gc-32" style="edgeStyle=none;rounded=0;orthogonalLoop=1;jettySize=auto;html=1;exitX=0.5;exitY=0;exitDx=0;exitDy=0;entryX=1;entryY=0.5;entryDx=0;entryDy=0;fontSize=20;" parent="wvXTG4sEaDYobyPt9_Gc-30" source="wvXTG4sEaDYobyPt9_Gc-1" target="wvXTG4sEaDYobyPt9_Gc-31" edge="1">
          <mxGeometry relative="1" as="geometry" />
        </mxCell>
        <mxCell id="wvXTG4sEaDYobyPt9_Gc-1" value="商品表" style="rounded=1;whiteSpace=wrap;html=1;fontSize=20;" parent="wvXTG4sEaDYobyPt9_Gc-30" vertex="1">
          <mxGeometry x="265" y="190" width="120" height="50" as="geometry" />
        </mxCell>
        <mxCell id="wvXTG4sEaDYobyPt9_Gc-2" value="商品名称" style="ellipse;whiteSpace=wrap;html=1;fontSize=20;" parent="wvXTG4sEaDYobyPt9_Gc-30" vertex="1">
          <mxGeometry x="50" y="60" width="120" height="60" as="geometry" />
        </mxCell>
        <mxCell id="wvXTG4sEaDYobyPt9_Gc-5" value="商品类别" style="ellipse;whiteSpace=wrap;html=1;fontSize=20;" parent="wvXTG4sEaDYobyPt9_Gc-30" vertex="1">
          <mxGeometry x="140" y="20" width="120" height="60" as="geometry" />
        </mxCell>
        <mxCell id="wvXTG4sEaDYobyPt9_Gc-6" value="商品价格" style="ellipse;whiteSpace=wrap;html=1;fontSize=20;" parent="wvXTG4sEaDYobyPt9_Gc-30" vertex="1">
          <mxGeometry x="265" width="120" height="60" as="geometry" />
        </mxCell>
        <mxCell id="wvXTG4sEaDYobyPt9_Gc-7" value="规格" style="ellipse;whiteSpace=wrap;html=1;fontSize=20;" parent="wvXTG4sEaDYobyPt9_Gc-30" vertex="1">
          <mxGeometry x="400" y="10" width="120" height="60" as="geometry" />
        </mxCell>
        <mxCell id="wvXTG4sEaDYobyPt9_Gc-8" value="图片" style="ellipse;whiteSpace=wrap;html=1;fontSize=20;" parent="wvXTG4sEaDYobyPt9_Gc-30" vertex="1">
          <mxGeometry x="510" y="40" width="120" height="60" as="geometry" />
        </mxCell>
        <mxCell id="wvXTG4sEaDYobyPt9_Gc-9" value="备注" style="ellipse;whiteSpace=wrap;html=1;fontSize=20;" parent="wvXTG4sEaDYobyPt9_Gc-30" vertex="1">
          <mxGeometry x="540" y="120" width="120" height="60" as="geometry" />
        </mxCell>
        <mxCell id="wvXTG4sEaDYobyPt9_Gc-16" style="edgeStyle=none;rounded=0;orthogonalLoop=1;jettySize=auto;html=1;exitX=0.5;exitY=0;exitDx=0;exitDy=0;entryX=0.258;entryY=0.917;entryDx=0;entryDy=0;entryPerimeter=0;fontSize=20;" parent="wvXTG4sEaDYobyPt9_Gc-30" source="wvXTG4sEaDYobyPt9_Gc-1" target="wvXTG4sEaDYobyPt9_Gc-8" edge="1">
          <mxGeometry relative="1" as="geometry" />
        </mxCell>
        <mxCell id="wvXTG4sEaDYobyPt9_Gc-31" value="商品ID" style="ellipse;whiteSpace=wrap;html=1;fontSize=20;" parent="wvXTG4sEaDYobyPt9_Gc-30" vertex="1">
          <mxGeometry y="120" width="120" height="60" as="geometry" />
        </mxCell>
        <mxCell id="wvXTG4sEaDYobyPt9_Gc-33" value="" style="group;fontSize=20;" parent="1" vertex="1" connectable="0">
          <mxGeometry x="320" y="400" width="670" height="240" as="geometry" />
        </mxCell>
        <mxCell id="wvXTG4sEaDYobyPt9_Gc-17" style="rounded=0;orthogonalLoop=1;jettySize=auto;html=1;exitX=0.5;exitY=0;exitDx=0;exitDy=0;entryX=0.5;entryY=1;entryDx=0;entryDy=0;fontSize=20;" parent="wvXTG4sEaDYobyPt9_Gc-33" source="wvXTG4sEaDYobyPt9_Gc-22" target="wvXTG4sEaDYobyPt9_Gc-23" edge="1">
          <mxGeometry relative="1" as="geometry" />
        </mxCell>
        <mxCell id="wvXTG4sEaDYobyPt9_Gc-18" style="edgeStyle=none;rounded=0;orthogonalLoop=1;jettySize=auto;html=1;exitX=0.5;exitY=0;exitDx=0;exitDy=0;entryX=0.5;entryY=1;entryDx=0;entryDy=0;fontSize=20;" parent="wvXTG4sEaDYobyPt9_Gc-33" source="wvXTG4sEaDYobyPt9_Gc-22" target="wvXTG4sEaDYobyPt9_Gc-24" edge="1">
          <mxGeometry relative="1" as="geometry" />
        </mxCell>
        <mxCell id="wvXTG4sEaDYobyPt9_Gc-19" style="edgeStyle=none;rounded=0;orthogonalLoop=1;jettySize=auto;html=1;exitX=0.5;exitY=0;exitDx=0;exitDy=0;entryX=0.5;entryY=1;entryDx=0;entryDy=0;fontSize=20;" parent="wvXTG4sEaDYobyPt9_Gc-33" source="wvXTG4sEaDYobyPt9_Gc-22" target="wvXTG4sEaDYobyPt9_Gc-25" edge="1">
          <mxGeometry relative="1" as="geometry" />
        </mxCell>
        <mxCell id="wvXTG4sEaDYobyPt9_Gc-20" style="edgeStyle=none;rounded=0;orthogonalLoop=1;jettySize=auto;html=1;exitX=0.5;exitY=0;exitDx=0;exitDy=0;entryX=0.5;entryY=1;entryDx=0;entryDy=0;fontSize=20;" parent="wvXTG4sEaDYobyPt9_Gc-33" source="wvXTG4sEaDYobyPt9_Gc-22" target="wvXTG4sEaDYobyPt9_Gc-26" edge="1">
          <mxGeometry relative="1" as="geometry" />
        </mxCell>
        <mxCell id="wvXTG4sEaDYobyPt9_Gc-21" style="edgeStyle=none;rounded=0;orthogonalLoop=1;jettySize=auto;html=1;exitX=0.5;exitY=0;exitDx=0;exitDy=0;entryX=0;entryY=0.5;entryDx=0;entryDy=0;fontSize=20;" parent="wvXTG4sEaDYobyPt9_Gc-33" source="wvXTG4sEaDYobyPt9_Gc-22" target="wvXTG4sEaDYobyPt9_Gc-28" edge="1">
          <mxGeometry relative="1" as="geometry" />
        </mxCell>
        <mxCell id="wvXTG4sEaDYobyPt9_Gc-22" value="用户表" style="rounded=1;whiteSpace=wrap;html=1;fontSize=20;" parent="wvXTG4sEaDYobyPt9_Gc-33" vertex="1">
          <mxGeometry x="265" y="190" width="120" height="50" as="geometry" />
        </mxCell>
        <mxCell id="wvXTG4sEaDYobyPt9_Gc-23" value="用户ID" style="ellipse;whiteSpace=wrap;html=1;fontSize=20;" parent="wvXTG4sEaDYobyPt9_Gc-33" vertex="1">
          <mxGeometry y="80" width="120" height="60" as="geometry" />
        </mxCell>
        <mxCell id="wvXTG4sEaDYobyPt9_Gc-24" value="用户账号" style="ellipse;whiteSpace=wrap;html=1;fontSize=20;" parent="wvXTG4sEaDYobyPt9_Gc-33" vertex="1">
          <mxGeometry x="110" y="20" width="120" height="60" as="geometry" />
        </mxCell>
        <mxCell id="wvXTG4sEaDYobyPt9_Gc-25" value="用户密码" style="ellipse;whiteSpace=wrap;html=1;fontSize=20;" parent="wvXTG4sEaDYobyPt9_Gc-33" vertex="1">
          <mxGeometry x="240" width="120" height="60" as="geometry" />
        </mxCell>
        <mxCell id="wvXTG4sEaDYobyPt9_Gc-26" value="用户手机号" style="ellipse;whiteSpace=wrap;html=1;fontSize=20;" parent="wvXTG4sEaDYobyPt9_Gc-33" vertex="1">
          <mxGeometry x="370" width="120" height="60" as="geometry" />
        </mxCell>
        <mxCell id="wvXTG4sEaDYobyPt9_Gc-27" value="用户性别" style="ellipse;whiteSpace=wrap;html=1;fontSize=20;" parent="wvXTG4sEaDYobyPt9_Gc-33" vertex="1">
          <mxGeometry x="540" y="20" width="120" height="60" as="geometry" />
        </mxCell>
        <mxCell id="wvXTG4sEaDYobyPt9_Gc-28" value="用户头像" style="ellipse;whiteSpace=wrap;html=1;fontSize=20;" parent="wvXTG4sEaDYobyPt9_Gc-33" vertex="1">
          <mxGeometry x="550" y="90" width="120" height="60" as="geometry" />
        </mxCell>
        <mxCell id="wvXTG4sEaDYobyPt9_Gc-29" style="edgeStyle=none;rounded=0;orthogonalLoop=1;jettySize=auto;html=1;exitX=0.5;exitY=0;exitDx=0;exitDy=0;entryX=0.258;entryY=0.917;entryDx=0;entryDy=0;entryPerimeter=0;fontSize=20;" parent="wvXTG4sEaDYobyPt9_Gc-33" source="wvXTG4sEaDYobyPt9_Gc-22" target="wvXTG4sEaDYobyPt9_Gc-27" edge="1">
          <mxGeometry relative="1" as="geometry" />
        </mxCell>
        <mxCell id="wvXTG4sEaDYobyPt9_Gc-34" value="" style="group;fontSize=20;" parent="1" vertex="1" connectable="0">
          <mxGeometry x="700" y="130" width="670" height="260" as="geometry" />
        </mxCell>
        <mxCell id="wvXTG4sEaDYobyPt9_Gc-35" style="rounded=0;orthogonalLoop=1;jettySize=auto;html=1;exitX=0.5;exitY=0;exitDx=0;exitDy=0;entryX=0.5;entryY=1;entryDx=0;entryDy=0;fontSize=20;" parent="wvXTG4sEaDYobyPt9_Gc-34" source="wvXTG4sEaDYobyPt9_Gc-40" target="wvXTG4sEaDYobyPt9_Gc-41" edge="1">
          <mxGeometry relative="1" as="geometry" />
        </mxCell>
        <mxCell id="wvXTG4sEaDYobyPt9_Gc-36" style="edgeStyle=none;rounded=0;orthogonalLoop=1;jettySize=auto;html=1;exitX=0.5;exitY=0;exitDx=0;exitDy=0;entryX=0.5;entryY=1;entryDx=0;entryDy=0;fontSize=20;" parent="wvXTG4sEaDYobyPt9_Gc-34" source="wvXTG4sEaDYobyPt9_Gc-40" target="wvXTG4sEaDYobyPt9_Gc-42" edge="1">
          <mxGeometry relative="1" as="geometry" />
        </mxCell>
        <mxCell id="wvXTG4sEaDYobyPt9_Gc-37" style="edgeStyle=none;rounded=0;orthogonalLoop=1;jettySize=auto;html=1;exitX=0.5;exitY=0;exitDx=0;exitDy=0;entryX=0.5;entryY=1;entryDx=0;entryDy=0;fontSize=20;" parent="wvXTG4sEaDYobyPt9_Gc-34" source="wvXTG4sEaDYobyPt9_Gc-40" target="wvXTG4sEaDYobyPt9_Gc-43" edge="1">
          <mxGeometry relative="1" as="geometry" />
        </mxCell>
        <mxCell id="wvXTG4sEaDYobyPt9_Gc-38" style="edgeStyle=none;rounded=0;orthogonalLoop=1;jettySize=auto;html=1;exitX=0.5;exitY=0;exitDx=0;exitDy=0;entryX=0.5;entryY=1;entryDx=0;entryDy=0;fontSize=20;" parent="wvXTG4sEaDYobyPt9_Gc-34" source="wvXTG4sEaDYobyPt9_Gc-40" target="wvXTG4sEaDYobyPt9_Gc-44" edge="1">
          <mxGeometry relative="1" as="geometry" />
        </mxCell>
        <mxCell id="wvXTG4sEaDYobyPt9_Gc-39" style="edgeStyle=none;rounded=0;orthogonalLoop=1;jettySize=auto;html=1;exitX=0.5;exitY=0;exitDx=0;exitDy=0;entryX=0;entryY=0.5;entryDx=0;entryDy=0;fontSize=20;" parent="wvXTG4sEaDYobyPt9_Gc-34" source="wvXTG4sEaDYobyPt9_Gc-40" target="wvXTG4sEaDYobyPt9_Gc-46" edge="1">
          <mxGeometry relative="1" as="geometry" />
        </mxCell>
        <mxCell id="wvXTG4sEaDYobyPt9_Gc-49" style="edgeStyle=none;rounded=0;orthogonalLoop=1;jettySize=auto;html=1;exitX=0.5;exitY=0;exitDx=0;exitDy=0;entryX=0;entryY=0.5;entryDx=0;entryDy=0;fontSize=20;" parent="wvXTG4sEaDYobyPt9_Gc-34" source="wvXTG4sEaDYobyPt9_Gc-40" target="wvXTG4sEaDYobyPt9_Gc-48" edge="1">
          <mxGeometry relative="1" as="geometry" />
        </mxCell>
        <mxCell id="wvXTG4sEaDYobyPt9_Gc-51" style="edgeStyle=none;rounded=0;orthogonalLoop=1;jettySize=auto;html=1;exitX=0.5;exitY=0;exitDx=0;exitDy=0;entryX=0;entryY=0.5;entryDx=0;entryDy=0;fontSize=20;" parent="wvXTG4sEaDYobyPt9_Gc-34" source="wvXTG4sEaDYobyPt9_Gc-40" target="wvXTG4sEaDYobyPt9_Gc-50" edge="1">
          <mxGeometry relative="1" as="geometry" />
        </mxCell>
        <mxCell id="wvXTG4sEaDYobyPt9_Gc-40" value="订单表" style="rounded=1;whiteSpace=wrap;html=1;fontSize=20;" parent="wvXTG4sEaDYobyPt9_Gc-34" vertex="1">
          <mxGeometry x="265" y="190" width="120" height="50" as="geometry" />
        </mxCell>
        <mxCell id="wvXTG4sEaDYobyPt9_Gc-41" value="用户ID" style="ellipse;whiteSpace=wrap;html=1;fontSize=20;" parent="wvXTG4sEaDYobyPt9_Gc-34" vertex="1">
          <mxGeometry y="80" width="120" height="60" as="geometry" />
        </mxCell>
        <mxCell id="wvXTG4sEaDYobyPt9_Gc-42" value="商品ID" style="ellipse;whiteSpace=wrap;html=1;fontSize=20;" parent="wvXTG4sEaDYobyPt9_Gc-34" vertex="1">
          <mxGeometry x="110" y="20" width="120" height="60" as="geometry" />
        </mxCell>
        <mxCell id="wvXTG4sEaDYobyPt9_Gc-43" value="订单编号" style="ellipse;whiteSpace=wrap;html=1;fontSize=20;" parent="wvXTG4sEaDYobyPt9_Gc-34" vertex="1">
          <mxGeometry x="240" width="120" height="60" as="geometry" />
        </mxCell>
        <mxCell id="wvXTG4sEaDYobyPt9_Gc-44" value="&lt;div&gt;&lt;span style=&quot;background-color: initial;&quot;&gt;创建时间&lt;/span&gt;&lt;br&gt;&lt;/div&gt;" style="ellipse;whiteSpace=wrap;html=1;fontSize=20;" parent="wvXTG4sEaDYobyPt9_Gc-34" vertex="1">
          <mxGeometry x="370" width="120" height="60" as="geometry" />
        </mxCell>
        <mxCell id="wvXTG4sEaDYobyPt9_Gc-45" value="订单状态" style="ellipse;whiteSpace=wrap;html=1;fontSize=20;" parent="wvXTG4sEaDYobyPt9_Gc-34" vertex="1">
          <mxGeometry x="490" y="10" width="120" height="60" as="geometry" />
        </mxCell>
        <mxCell id="wvXTG4sEaDYobyPt9_Gc-46" value="商品单价" style="ellipse;whiteSpace=wrap;html=1;fontSize=20;" parent="wvXTG4sEaDYobyPt9_Gc-34" vertex="1">
          <mxGeometry x="550" y="70" width="120" height="60" as="geometry" />
        </mxCell>
        <mxCell id="wvXTG4sEaDYobyPt9_Gc-47" style="edgeStyle=none;rounded=0;orthogonalLoop=1;jettySize=auto;html=1;exitX=0.5;exitY=0;exitDx=0;exitDy=0;entryX=0.258;entryY=0.917;entryDx=0;entryDy=0;entryPerimeter=0;fontSize=20;" parent="wvXTG4sEaDYobyPt9_Gc-34" source="wvXTG4sEaDYobyPt9_Gc-40" target="wvXTG4sEaDYobyPt9_Gc-45" edge="1">
          <mxGeometry relative="1" as="geometry" />
        </mxCell>
        <mxCell id="wvXTG4sEaDYobyPt9_Gc-48" value="商品数量" style="ellipse;whiteSpace=wrap;html=1;fontSize=20;" parent="wvXTG4sEaDYobyPt9_Gc-34" vertex="1">
          <mxGeometry x="550" y="130" width="120" height="60" as="geometry" />
        </mxCell>
        <mxCell id="wvXTG4sEaDYobyPt9_Gc-50" value="商品总价" style="ellipse;whiteSpace=wrap;html=1;fontSize=20;" parent="wvXTG4sEaDYobyPt9_Gc-34" vertex="1">
          <mxGeometry x="545" y="190" width="120" height="60" as="geometry" />
        </mxCell>
        <mxCell id="wvXTG4sEaDYobyPt9_Gc-52" value="" style="endArrow=classic;startArrow=classic;html=1;rounded=0;entryX=1;entryY=0.5;entryDx=0;entryDy=0;exitX=0;exitY=0.5;exitDx=0;exitDy=0;fontSize=20;" parent="1" source="wvXTG4sEaDYobyPt9_Gc-40" target="wvXTG4sEaDYobyPt9_Gc-1" edge="1">
          <mxGeometry width="50" height="50" relative="1" as="geometry">
            <mxPoint x="790" y="450" as="sourcePoint" />
            <mxPoint x="840" y="400" as="targetPoint" />
          </mxGeometry>
        </mxCell>
        <mxCell id="wvXTG4sEaDYobyPt9_Gc-53" value="&lt;font style=&quot;font-size: 20px;&quot;&gt;1：n&lt;/font&gt;" style="edgeLabel;html=1;align=center;verticalAlign=middle;resizable=0;points=[];fontSize=20;" parent="wvXTG4sEaDYobyPt9_Gc-52" vertex="1" connectable="0">
          <mxGeometry x="-0.0435" y="1" relative="1" as="geometry">
            <mxPoint as="offset" />
          </mxGeometry>
        </mxCell>
        <mxCell id="wvXTG4sEaDYobyPt9_Gc-54" value="" style="endArrow=classic;startArrow=classic;html=1;rounded=0;entryX=0;entryY=0.5;entryDx=0;entryDy=0;exitX=0.5;exitY=0;exitDx=0;exitDy=0;fontSize=20;" parent="1" source="wvXTG4sEaDYobyPt9_Gc-22" target="wvXTG4sEaDYobyPt9_Gc-40" edge="1">
          <mxGeometry width="50" height="50" relative="1" as="geometry">
            <mxPoint x="790" y="440" as="sourcePoint" />
            <mxPoint x="840" y="390" as="targetPoint" />
          </mxGeometry>
        </mxCell>
        <mxCell id="wvXTG4sEaDYobyPt9_Gc-55" value="&lt;font style=&quot;font-size: 20px;&quot;&gt;1：n&lt;/font&gt;" style="edgeLabel;html=1;align=center;verticalAlign=middle;resizable=0;points=[];fontSize=20;" parent="wvXTG4sEaDYobyPt9_Gc-54" vertex="1" connectable="0">
          <mxGeometry x="0.5151" y="-1" relative="1" as="geometry">
            <mxPoint as="offset" />
          </mxGeometry>
        </mxCell>
        <mxCell id="wvXTG4sEaDYobyPt9_Gc-81" value="" style="endArrow=classic;startArrow=classic;html=1;rounded=0;exitX=0.5;exitY=0;exitDx=0;exitDy=0;entryX=0.5;entryY=1;entryDx=0;entryDy=0;fontSize=20;" parent="1" source="wvXTG4sEaDYobyPt9_Gc-63" target="wvXTG4sEaDYobyPt9_Gc-1" edge="1">
          <mxGeometry width="50" height="50" relative="1" as="geometry">
            <mxPoint x="600" y="330" as="sourcePoint" />
            <mxPoint x="650" y="280" as="targetPoint" />
          </mxGeometry>
        </mxCell>
        <mxCell id="wvXTG4sEaDYobyPt9_Gc-82" value="&lt;font style=&quot;font-size: 20px;&quot;&gt;1:1&lt;/font&gt;" style="edgeLabel;html=1;align=center;verticalAlign=middle;resizable=0;points=[];fontSize=20;" parent="wvXTG4sEaDYobyPt9_Gc-81" vertex="1" connectable="0">
          <mxGeometry x="0.0392" y="-6" relative="1" as="geometry">
            <mxPoint as="offset" />
          </mxGeometry>
        </mxCell>
        <mxCell id="wvXTG4sEaDYobyPt9_Gc-85" value="" style="group;fontSize=20;" parent="1" vertex="1" connectable="0">
          <mxGeometry x="-30" y="460" width="430" height="250" as="geometry" />
        </mxCell>
        <mxCell id="wvXTG4sEaDYobyPt9_Gc-63" value="库存表" style="rounded=1;whiteSpace=wrap;html=1;fontSize=20;" parent="wvXTG4sEaDYobyPt9_Gc-85" vertex="1">
          <mxGeometry x="180" width="120" height="50" as="geometry" />
        </mxCell>
        <mxCell id="wvXTG4sEaDYobyPt9_Gc-57" style="rounded=0;orthogonalLoop=1;jettySize=auto;html=1;exitX=0.5;exitY=1;exitDx=0;exitDy=0;entryX=0.5;entryY=0;entryDx=0;entryDy=0;fontSize=20;" parent="wvXTG4sEaDYobyPt9_Gc-85" source="wvXTG4sEaDYobyPt9_Gc-63" target="wvXTG4sEaDYobyPt9_Gc-64" edge="1">
          <mxGeometry relative="1" as="geometry" />
        </mxCell>
        <mxCell id="wvXTG4sEaDYobyPt9_Gc-61" style="edgeStyle=none;rounded=0;orthogonalLoop=1;jettySize=auto;html=1;entryX=0.5;entryY=0;entryDx=0;entryDy=0;fontSize=20;exitX=0.5;exitY=1;exitDx=0;exitDy=0;" parent="wvXTG4sEaDYobyPt9_Gc-85" source="wvXTG4sEaDYobyPt9_Gc-63" target="wvXTG4sEaDYobyPt9_Gc-69" edge="1">
          <mxGeometry relative="1" as="geometry">
            <mxPoint x="220" y="60" as="sourcePoint" />
          </mxGeometry>
        </mxCell>
        <mxCell id="wvXTG4sEaDYobyPt9_Gc-62" style="edgeStyle=none;rounded=0;orthogonalLoop=1;jettySize=auto;html=1;exitX=0.5;exitY=1;exitDx=0;exitDy=0;entryX=0.5;entryY=0;entryDx=0;entryDy=0;fontSize=20;" parent="wvXTG4sEaDYobyPt9_Gc-85" source="wvXTG4sEaDYobyPt9_Gc-63" target="wvXTG4sEaDYobyPt9_Gc-71" edge="1">
          <mxGeometry relative="1" as="geometry" />
        </mxCell>
        <mxCell id="wvXTG4sEaDYobyPt9_Gc-84" value="" style="group;fontSize=20;" parent="wvXTG4sEaDYobyPt9_Gc-85" vertex="1" connectable="0">
          <mxGeometry y="180" width="430" height="70" as="geometry" />
        </mxCell>
        <mxCell id="wvXTG4sEaDYobyPt9_Gc-64" value="库存量" style="ellipse;whiteSpace=wrap;html=1;fontSize=20;" parent="wvXTG4sEaDYobyPt9_Gc-84" vertex="1">
          <mxGeometry x="150" width="120" height="60" as="geometry" />
        </mxCell>
        <mxCell id="wvXTG4sEaDYobyPt9_Gc-69" value="备注" style="ellipse;whiteSpace=wrap;html=1;fontSize=20;" parent="wvXTG4sEaDYobyPt9_Gc-84" vertex="1">
          <mxGeometry x="310" width="120" height="60" as="geometry" />
        </mxCell>
        <mxCell id="wvXTG4sEaDYobyPt9_Gc-71" value="商品ID" style="ellipse;whiteSpace=wrap;html=1;fontSize=20;" parent="wvXTG4sEaDYobyPt9_Gc-84" vertex="1">
          <mxGeometry y="10" width="120" height="60" as="geometry" />
        </mxCell>
        <mxCell id="wvXTG4sEaDYobyPt9_Gc-99" value="" style="endArrow=classic;startArrow=classic;html=1;rounded=0;entryX=0.5;entryY=1;entryDx=0;entryDy=0;exitX=1;exitY=0.5;exitDx=0;exitDy=0;fontSize=20;" parent="1" source="wvXTG4sEaDYobyPt9_Gc-87" target="wvXTG4sEaDYobyPt9_Gc-1" edge="1">
          <mxGeometry width="50" height="50" relative="1" as="geometry">
            <mxPoint x="-120" y="290" as="sourcePoint" />
            <mxPoint x="-70" y="240" as="targetPoint" />
          </mxGeometry>
        </mxCell>
        <mxCell id="wvXTG4sEaDYobyPt9_Gc-100" value="Text" style="edgeLabel;html=1;align=center;verticalAlign=middle;resizable=0;points=[];fontSize=20;" parent="wvXTG4sEaDYobyPt9_Gc-99" vertex="1" connectable="0">
          <mxGeometry x="0.0017" y="-2" relative="1" as="geometry">
            <mxPoint x="1" y="-1" as="offset" />
          </mxGeometry>
        </mxCell>
        <mxCell id="wvXTG4sEaDYobyPt9_Gc-101" value="&lt;font style=&quot;font-size: 20px;&quot;&gt;1&lt;/font&gt;&lt;span style=&quot;font-size: 20px;&quot;&gt;：n&lt;/span&gt;" style="edgeLabel;html=1;align=center;verticalAlign=middle;resizable=0;points=[];fontSize=20;" parent="wvXTG4sEaDYobyPt9_Gc-99" vertex="1" connectable="0">
          <mxGeometry x="0.03" y="-5" relative="1" as="geometry">
            <mxPoint as="offset" />
          </mxGeometry>
        </mxCell>
        <mxCell id="wvXTG4sEaDYobyPt9_Gc-102" value="" style="group" parent="1" vertex="1" connectable="0">
          <mxGeometry x="-210" y="270" width="300" height="260" as="geometry" />
        </mxCell>
        <mxCell id="wvXTG4sEaDYobyPt9_Gc-96" style="edgeStyle=none;rounded=0;orthogonalLoop=1;jettySize=auto;html=1;exitX=0;exitY=0.5;exitDx=0;exitDy=0;entryX=1;entryY=1;entryDx=0;entryDy=0;fontSize=20;" parent="wvXTG4sEaDYobyPt9_Gc-102" source="wvXTG4sEaDYobyPt9_Gc-87" target="wvXTG4sEaDYobyPt9_Gc-94" edge="1">
          <mxGeometry relative="1" as="geometry" />
        </mxCell>
        <mxCell id="wvXTG4sEaDYobyPt9_Gc-97" style="edgeStyle=none;rounded=0;orthogonalLoop=1;jettySize=auto;html=1;exitX=0;exitY=0.5;exitDx=0;exitDy=0;entryX=1;entryY=0.5;entryDx=0;entryDy=0;fontSize=20;" parent="wvXTG4sEaDYobyPt9_Gc-102" source="wvXTG4sEaDYobyPt9_Gc-87" target="wvXTG4sEaDYobyPt9_Gc-92" edge="1">
          <mxGeometry relative="1" as="geometry" />
        </mxCell>
        <mxCell id="wvXTG4sEaDYobyPt9_Gc-98" style="edgeStyle=none;rounded=0;orthogonalLoop=1;jettySize=auto;html=1;exitX=0;exitY=0.5;exitDx=0;exitDy=0;entryX=1;entryY=0;entryDx=0;entryDy=0;fontSize=20;" parent="wvXTG4sEaDYobyPt9_Gc-102" source="wvXTG4sEaDYobyPt9_Gc-87" target="wvXTG4sEaDYobyPt9_Gc-93" edge="1">
          <mxGeometry relative="1" as="geometry" />
        </mxCell>
        <mxCell id="wvXTG4sEaDYobyPt9_Gc-87" value="供应商表" style="rounded=1;whiteSpace=wrap;html=1;fontSize=20;" parent="wvXTG4sEaDYobyPt9_Gc-102" vertex="1">
          <mxGeometry x="180" y="105" width="120" height="50" as="geometry" />
        </mxCell>
        <mxCell id="wvXTG4sEaDYobyPt9_Gc-94" value="供应商ID" style="ellipse;whiteSpace=wrap;html=1;fontSize=20;" parent="wvXTG4sEaDYobyPt9_Gc-102" vertex="1">
          <mxGeometry x="60" width="120" height="60" as="geometry" />
        </mxCell>
        <mxCell id="wvXTG4sEaDYobyPt9_Gc-92" value="供应商名称" style="ellipse;whiteSpace=wrap;html=1;fontSize=20;" parent="wvXTG4sEaDYobyPt9_Gc-102" vertex="1">
          <mxGeometry y="90" width="120" height="60" as="geometry" />
        </mxCell>
        <mxCell id="wvXTG4sEaDYobyPt9_Gc-93" value="联系电话" style="ellipse;whiteSpace=wrap;html=1;fontSize=20;" parent="wvXTG4sEaDYobyPt9_Gc-102" vertex="1">
          <mxGeometry x="40" y="200" width="120" height="60" as="geometry" />
        </mxCell>
      </root>
    </mxGraphModel>
  </diagram>
</mxfile>
